<svg viewBox="0 0 14.5752 12.605" xmlns="http://www.w3.org/2000/svg" xmlns:xlink="http://www.w3.org/1999/xlink" width="14.575195" height="12.604980" fill="none">
	<rect id="Icons-dribbble" width="14.575342" height="12.604972" x="0.000000" y="0.000000" fill="rgb(255,255,255)" fill-opacity="0" />
	<path id="Vector" d="M0 0L14.5753 0L14.5753 12.605L0 12.605L0 0Z" fill-rule="nonzero" />
	<path id="Vector" d="M12.1392 6.07806C12.0894 5.25134 11.7569 4.45602 11.1839 3.79289C11.0093 3.95551 10.8227 4.10814 10.6252 4.24982C10.0184 4.68566 9.3404 5.0414 8.61316 5.30548C8.71458 5.48931 8.8075 5.66735 8.88949 5.83542L8.88949 5.83699C8.91262 5.88395 8.93489 5.93123 8.95629 5.9788C9.87575 5.88951 10.845 5.92208 11.7845 6.03185C11.9096 6.04655 12.0274 6.06231 12.1392 6.07806ZM6.43962 2.16527C7.03146 2.88647 7.57723 3.63513 8.07448 4.40791C8.81722 4.15476 9.4312 3.83543 9.92555 3.47986C10.0971 3.35756 10.2587 3.22506 10.409 3.08333C9.53504 2.44768 8.42934 2.09979 7.28741 2.1012C7.00322 2.10103 6.71954 2.12229 6.43962 2.16475L6.43962 2.16527ZM2.58262 5.25086C2.99633 5.24183 3.40955 5.22029 3.82152 5.18626C4.81728 5.10924 5.80454 4.96489 6.77424 4.75454C6.26745 3.9931 5.72029 3.2523 5.13451 2.53449C4.50882 2.80256 3.95711 3.18386 3.5168 3.65255C3.0765 4.12123 2.7579 4.66633 2.58262 5.25086ZM3.51179 8.94727C3.74743 8.64948 4.05715 8.3144 4.4683 7.9499C5.35132 7.16734 6.39346 6.5581 7.59957 6.22197L7.63722 6.21252C7.53702 6.02134 7.44288 5.85065 7.34815 5.68994C6.23313 5.97092 5.0586 6.14634 3.88832 6.2372C3.31746 6.28184 2.8055 6.30128 2.42897 6.30443C2.42789 7.26692 2.81053 8.2003 3.5124 8.94727L3.51179 8.94727ZM9.11237 10.1973C8.87817 9.17587 8.54667 8.17298 8.12125 7.19886C6.90542 7.58068 5.93677 8.13898 5.18796 8.80494C4.88576 9.06879 4.61759 9.36024 4.38814 9.67416C5.22549 10.2145 6.24265 10.5058 7.28741 10.5045C7.91289 10.5053 8.53261 10.4013 9.11237 10.1983L9.11237 10.1973ZM10.2499 9.63267C11.198 9.00229 11.8439 8.09156 12.0639 7.07491C11.8574 7.03026 11.5956 6.98562 11.3078 6.95096C10.6678 6.87125 10.0183 6.86543 9.37655 6.93363C9.73793 7.81536 10.0297 8.71729 10.2499 9.63319L10.2499 9.63267ZM7.28741 11.5549C3.93326 11.5549 1.21436 9.20357 1.21436 6.30285C1.21436 3.40213 3.93326 1.05078 7.28741 1.05078C10.6416 1.05078 13.3605 3.40213 13.3605 6.30285C13.3605 9.20357 10.6416 11.5549 7.28741 11.5549Z" fill="rgb(43,43,43)" fill-rule="nonzero" />
</svg>
