<svg viewBox="0 0 14.5752 12.605" xmlns="http://www.w3.org/2000/svg" xmlns:xlink="http://www.w3.org/1999/xlink" width="14.575195" height="12.604980" fill="none">
	<rect id="Icons-instagram" width="14.575342" height="12.604972" x="0.000000" y="0.000000" fill="rgb(255,255,255)" fill-opacity="0" />
	<path id="Vector" d="M0 0L14.5753 0L14.5753 12.605L0 12.605L0 0Z" fill-rule="nonzero" />
	<path id="Vector" d="M7.2879 1.05078C8.93795 1.05078 9.14383 1.05603 9.79122 1.08229C10.438 1.10855 10.8783 1.19626 11.2658 1.32652C11.6666 1.45992 12.0042 1.64059 12.3419 1.93208C12.6507 2.19463 12.8897 2.51222 13.0421 2.86275C13.1921 3.1973 13.2942 3.5786 13.3245 4.13795C13.3531 4.69782 13.361 4.87586 13.361 6.30285C13.361 7.72984 13.3549 7.90789 13.3245 8.46776C13.2942 9.0271 13.1921 9.40788 13.0421 9.74296C12.8901 10.0937 12.6511 10.4113 12.3419 10.6736C12.0382 10.9406 11.671 11.1472 11.2658 11.2792C10.8789 11.4089 10.438 11.4972 9.79122 11.5234C9.14383 11.5481 8.93795 11.5549 7.2879 11.5549C5.63785 11.5549 5.43198 11.5497 4.78459 11.5234C4.13781 11.4972 3.69751 11.4089 3.31005 11.2792C2.90457 11.1476 2.53727 10.9409 2.2339 10.6736C1.92503 10.4111 1.68607 10.0935 1.53368 9.74296C1.38307 9.4084 1.28165 9.0271 1.25128 8.46776C1.22274 7.90789 1.21484 7.72984 1.21484 6.30285C1.21484 4.87586 1.22092 4.69782 1.25128 4.13795C1.28165 3.57808 1.38307 3.19783 1.53368 2.86275C1.68565 2.512 1.92467 2.19433 2.2339 1.93208C2.53736 1.66487 2.90463 1.4582 3.31005 1.32652C3.69751 1.19626 4.1372 1.10855 4.78459 1.08229C5.43198 1.05761 5.63785 1.05078 7.2879 1.05078ZM7.2879 3.67682C6.48256 3.67682 5.71021 3.95349 5.14075 4.44596C4.57129 4.93844 4.25137 5.60638 4.25137 6.30285C4.25137 6.99932 4.57129 7.66726 5.14075 8.15974C5.71021 8.65222 6.48256 8.92889 7.2879 8.92889C8.09324 8.92889 8.86559 8.65222 9.43505 8.15974C10.0045 7.66726 10.3244 6.99932 10.3244 6.30285C10.3244 5.60638 10.0045 4.93844 9.43505 4.44596C8.86559 3.95349 8.09324 3.67682 7.2879 3.67682ZM11.2354 3.54552C11.2354 3.3714 11.1554 3.20441 11.013 3.08129C10.8707 2.95817 10.6776 2.88901 10.4763 2.88901C10.2749 2.88901 10.0818 2.95817 9.93947 3.08129C9.79711 3.20441 9.71713 3.3714 9.71713 3.54552C9.71713 3.71963 9.79711 3.88662 9.93947 4.00974C10.0818 4.13286 10.2749 4.20202 10.4763 4.20202C10.6776 4.20202 10.8707 4.13286 11.013 4.00974C11.1554 3.88662 11.2354 3.71963 11.2354 3.54552ZM7.2879 4.72723C7.77111 4.72723 8.23452 4.89323 8.57619 5.18872C8.91787 5.48421 9.10982 5.88497 9.10982 6.30285C9.10982 6.72073 8.91787 7.1215 8.57619 7.41699C8.23452 7.71247 7.77111 7.87847 7.2879 7.87847C6.8047 7.87847 6.34129 7.71247 5.99961 7.41699C5.65794 7.1215 5.46598 6.72073 5.46598 6.30285C5.46598 5.88497 5.65794 5.48421 5.99961 5.18872C6.34129 4.89323 6.8047 4.72723 7.2879 4.72723Z" fill="rgb(43,43,43)" fill-rule="nonzero" />
</svg>
